<?xml version="1.0" encoding="UTF-8" standalone="no"?>
<!DOCTYPE svg PUBLIC "-//W3C//DTD SVG 1.1//EN" "http://www.w3.org/Graphics/SVG/1.1/DTD/svg11.dtd">
<svg width="100%" height="100%" viewBox="0 0 450 450" version="1.1" xmlns="http://www.w3.org/2000/svg" xmlns:xlink="http://www.w3.org/1999/xlink" xml:space="preserve" xmlns:serif="http://www.serif.com/" style="fill-rule:evenodd;clip-rule:evenodd;stroke-linejoin:round;stroke-miterlimit:2;">
    <g transform="matrix(0.1,0,0,-0.1,0,450)">
        <path d="M2166,4294C2149,4278 2146,4252 2158,4234C2162,4227 2229,4183 2308,4136C2497,4022 2546,3988 2681,3878C3005,3615 3253,3319 3377,3050C3561,2653 3605,2290 3520,1870C3355,1056 2586,384 1935,484C1700,520 1510,623 1340,807C1080,1090 939,1488 938,1940C938,2122 953,2250 1000,2445C1113,2920 1432,3466 1741,3713C1993,3915 2180,3903 2265,3679C2301,3586 2314,3570 2335,3591C2349,3605 2349,3614 2335,3678C2308,3810 2265,3878 2183,3922C2120,3956 2069,3963 1990,3951C1711,3906 1342,3510 1092,2988C977,2747 906,2532 859,2280C839,2172 835,2124 835,1930C835,1742 839,1685 857,1585C936,1149 1136,798 1430,578C1630,428 1826,365 2080,367C2274,368 2444,414 2650,521C3057,732 3411,1158 3563,1618C3724,2104 3703,2576 3503,3020C3398,3251 3315,3378 3132,3583C2986,3747 2805,3911 2609,4058C2521,4124 2218,4310 2199,4310C2189,4310 2174,4303 2166,4294Z" style="fill-rule:nonzero;"/>
        <path d="M1863,2915C1821,2897 1806,2871 1763,2748C1730,2657 1726,2633 1726,2545C1725,2453 1727,2440 1755,2385C1778,2338 1796,2318 1834,2295C1877,2269 1892,2266 1956,2266C2020,2267 2039,2272 2104,2303C2278,2390 2355,2556 2284,2698C2238,2791 2125,2877 2001,2914C1935,2933 1905,2934 1863,2915ZM2000,2834C2037,2808 2055,2802 2064,2809C2073,2817 2087,2812 2116,2791C2215,2718 2253,2614 2215,2522C2163,2399 1972,2312 1869,2366C1794,2404 1774,2564 1825,2715C1854,2802 1882,2847 1914,2860C1945,2873 1943,2873 2000,2834Z" style="fill-rule:nonzero;"/>
        <path d="M2744,2775C2740,2767 2741,2753 2744,2745C2748,2735 2737,2718 2715,2698C2695,2681 2662,2631 2639,2585C2603,2513 2597,2491 2593,2416C2588,2349 2591,2320 2605,2284C2672,2108 2889,2065 3021,2201C3129,2312 3124,2465 3009,2617L2969,2670L2998,2670C3014,2670 3033,2677 3040,2685C3062,2712 3035,2727 2952,2734C2898,2739 2863,2748 2833,2766C2786,2793 2752,2797 2744,2775ZM2893,2640C2967,2573 3012,2485 3013,2403C3014,2290 2937,2210 2829,2210C2671,2210 2605,2391 2695,2577C2725,2636 2780,2690 2813,2690C2826,2690 2860,2669 2893,2640Z" style="fill-rule:nonzero;"/>
        <path d="M1880,1439C1833,1435 1783,1428 1768,1422C1736,1409 1717,1377 1725,1350C1734,1323 1783,1290 1814,1290C1835,1290 1842,1296 1847,1320C1852,1347 1856,1350 1889,1350C1928,1350 2076,1327 2291,1286C2615,1226 2800,1247 2800,1345C2800,1388 2767,1415 2697,1429C2636,1441 2003,1448 1880,1439Z" style="fill-rule:nonzero;"/>
    </g>
</svg>
